<svg xmlns="http://www.w3.org/2000/svg" width="26.943" height="34.09" viewBox="0 0 26.943 34.09"><path d="M13.62.017L13.472 0 0 1.412v24.661l13.474 8.017 13.43-7.99.042-.024V1.412L13.62.017zm11.399 12.11L13.495 5.334l-.001-.104-.087.05-.088-.056v.109L1.925 12.118V3.147l11.549-1.212L25.02 3.147l-.001 8.98zm-11.614-5.34L24.923 13.5l-4.479 2.64-7.093-4.221-.015 1.415 5.904 3.513-.86.507-5.029-2.992-.015 1.415 3.827 2.275-.782.523-3.03-1.787-.015 1.413 1.854 1.091-1.8 1.081-11.356-6.751 11.371-6.835zm-11.48 8.34l11.411 6.791.017 1.044-7.943-4.728-.015 1.416 7.979 4.795.019 1.076-7.974-4.74-.013 1.414 8.021 4.822.047.024 8.143-4.872-.011-5.177 3.415-2.036v10.021L13.472 31.85 1.925 24.979v-9.852z"/></svg>