<svg xmlns="http://www.w3.org/2000/svg" xmlns:xlink="http://www.w3.org/1999/xlink" width="27" height="24"><defs><path id="a" d="M1508 41v11a2 2 0 0 1-2 2h-16a2 2 0 0 1-2-2V41a2 2 0 0 1 2-2h3v-2a2 2 0 0 1 2-2h6a2 2 0 0 1 2 2v2h3a2 2 0 0 1 2 2zm-13-2h6v-2h-6zm11 11h-16v2h16zm0-9h-3v2h-2v-2h-6v2h-2v-2h-3v6h16z"/><path id="b" d="M1508 45a7 7 0 1 1 0 14 7 7 0 0 1 0-14z"/></defs><use xlink:href="#a" transform="translate(-1488 -35)"/><use xlink:href="#b" transform="translate(-1488 -35)"/><text dominant-baseline="text-before-edge" font-family="Helvetica, Arial, sans-serif" transform="translate(17 14)" fill="#fff" font-size="8"><tspan style="font-kerning:normal">3</tspan></text></svg>