<svg xmlns="http://www.w3.org/2000/svg" xmlns:xlink="http://www.w3.org/1999/xlink" width="27" height="24" viewBox="0 0 27 24"><defs><path id="1c6ga" d="M1508 41v11a2 2 0 0 1-2 2h-16a2 2 0 0 1-2-2V41a2 2 0 0 1 2-2h3v-2a2 2 0 0 1 2-2h6a2 2 0 0 1 2 2v2h3a2 2 0 0 1 2 2zm-13-2h6v-2h-6zm11 11h-16v2h16zm0-9h-3v2h-2v-2h-6v2h-2v-2h-3v6h16z"/><path id="1c6gb" d="M1508 45a7 7 0 1 1 0 14 7 7 0 0 1 0-14z"/></defs><g><g transform="translate(-1488 -35)"><use xlink:href="#1c6ga"/></g><g transform="translate(-1488 -35)"><use xlink:href="#1c6gb"/></g><g transform="translate(-1488 -35)"><g fill="#fff" font-family="'Montserrat','Montserrat-Medium'" font-size="8" style="text-transform:uppercase;line-height:64px"><text dominant-baseline="text-before-edge" font-family="Helvetica, Arial, sans-serif" transform="translate(1505 49)"><tspan style="font-kerning:normal">3</tspan></text></g></g></g></svg>