<svg xmlns="http://www.w3.org/2000/svg" xmlns:xlink="http://www.w3.org/1999/xlink" width="15" height="17" viewBox="0 0 15 17"><defs><path id="b4yta" d="M1457.5 49.01c-.63 0-1.2.26-1.63.66l-5.95-3.54c.05-.2.08-.4.08-.6 0-.2-.03-.4-.08-.6l5.88-3.5c.45.43 1.04.69 1.7.69 1.38 0 2.5-1.14 2.5-2.56a2.53 2.53 0 0 0-2.5-2.56 2.53 2.53 0 0 0-2.43 3.16l-5.87 3.5a2.46 2.46 0 0 0-1.7-.69 2.53 2.53 0 0 0-2.5 2.56 2.53 2.53 0 0 0 2.5 2.56c.66 0 1.25-.26 1.7-.69l5.93 3.55a2.47 2.47 0 0 0 2.37 3.05 2.47 2.47 0 0 0 2.43-2.5c0-1.37-1.09-2.49-2.43-2.49z"/></defs><g><g transform="translate(-1445 -37)"><use fill="#161918" xlink:href="#b4yta"/></g></g></svg>